<svg width="35" height="35" viewBox="0 0 35 35" fill="none" xmlns="http://www.w3.org/2000/svg">
<path d="M32.8125 35C28.8588 35 24.9294 34.0278 21.0243 32.0833C17.1192 30.1389 13.6111 27.6111 10.5 24.5C7.38889 21.3889 4.86111 17.8808 2.91667 13.9757C0.972222 10.0706 0 6.1412 0 2.1875C0 1.57176 0.210648 1.05324 0.631945 0.631945C1.05324 0.210648 1.57176 0 2.1875 0H8.99306C9.44676 0 9.84375 0.153935 10.184 0.461805C10.5243 0.769676 10.7431 1.18287 10.8403 1.70139L12.1528 7.82639C12.2176 8.28009 12.2095 8.69329 12.1285 9.06597C12.0475 9.43866 11.8773 9.75463 11.6181 10.0139L6.75694 14.9236C8.57176 17.9375 10.6053 20.5625 12.8576 22.7986C15.11 25.0347 17.662 26.9306 20.5139 28.4861L25.1319 23.7222C25.456 23.3657 25.8287 23.1146 26.25 22.9687C26.6713 22.8229 27.0926 22.7986 27.5139 22.8958L33.2986 24.1597C33.7847 24.2569 34.1898 24.5 34.5139 24.8889C34.838 25.2778 35 25.7315 35 26.25V32.8125C35 33.4282 34.7893 33.9468 34.3681 34.3681C33.9468 34.7893 33.4282 35 32.8125 35Z" fill="url(#paint0_linear_11_398)"/>
<defs>
<linearGradient id="paint0_linear_11_398" x1="17.5" y1="0" x2="17.5" y2="35" gradientUnits="userSpaceOnUse">
<stop stop-color="#272ED2"/>
<stop stop-color="#272ED2"/>
<stop offset="0.0001" stop-color="#131AB9"/>
<stop offset="1" stop-color="#00057D"/>
</linearGradient>
</defs>
</svg>
