<svg width="20" height="20" viewBox="0 0 20 20" fill="none" xmlns="http://www.w3.org/2000/svg">
<path d="M11.6666 7.33337C11.6666 7.25004 11.6944 7.17018 11.75 7.09379C11.8055 7.0174 11.868 6.96532 11.9375 6.93754C12.3541 6.78476 12.7812 6.66671 13.2187 6.58337C13.6562 6.50004 14.1111 6.45837 14.5833 6.45837C14.8889 6.45837 15.1875 6.47574 15.4791 6.51046C15.7708 6.54518 16.0555 6.59726 16.3333 6.66671C16.4166 6.69449 16.493 6.74657 16.5625 6.82296C16.6319 6.89935 16.6666 6.98615 16.6666 7.08337C16.6666 7.23615 16.6146 7.35421 16.5104 7.43754C16.4062 7.52087 16.2778 7.54171 16.125 7.50004C15.8889 7.4306 15.6423 7.37851 15.3854 7.34379C15.1285 7.30907 14.8611 7.29171 14.5833 7.29171C14.1805 7.29171 13.7916 7.3299 13.4166 7.40629C13.0416 7.48268 12.6736 7.59726 12.3125 7.75004C12.118 7.81949 11.9618 7.81601 11.8437 7.73962C11.7257 7.66324 11.6666 7.52782 11.6666 7.33337ZM11.6666 11.9167C11.6666 11.8334 11.6944 11.75 11.75 11.6667C11.8055 11.5834 11.868 11.5278 11.9375 11.5C12.3541 11.3473 12.7812 11.2327 13.2187 11.1563C13.6562 11.0799 14.1111 11.0417 14.5833 11.0417C14.8889 11.0417 15.1875 11.0591 15.4791 11.0938C15.7708 11.1285 16.0555 11.1806 16.3333 11.25C16.4166 11.2778 16.493 11.3299 16.5625 11.4063C16.6319 11.4827 16.6666 11.5695 16.6666 11.6667C16.6666 11.8195 16.6146 11.9375 16.5104 12.0209C16.4062 12.1042 16.2778 12.125 16.125 12.0834C15.8889 12.0139 15.6423 11.9618 15.3854 11.9271C15.1285 11.8924 14.8611 11.875 14.5833 11.875C14.1805 11.875 13.7916 11.9098 13.4166 11.9792C13.0416 12.0487 12.6736 12.1598 12.3125 12.3125C12.118 12.382 11.9618 12.382 11.8437 12.3125C11.7257 12.2431 11.6666 12.1112 11.6666 11.9167ZM11.6666 9.62504C11.6666 9.54171 11.6944 9.46185 11.75 9.38546C11.8055 9.30907 11.868 9.25698 11.9375 9.22921C12.3541 9.07643 12.7812 8.95837 13.2187 8.87504C13.6562 8.79171 14.1111 8.75004 14.5833 8.75004C14.8889 8.75004 15.1875 8.7674 15.4791 8.80212C15.7708 8.83685 16.0555 8.88893 16.3333 8.95837C16.4166 8.98615 16.493 9.03823 16.5625 9.11462C16.6319 9.19101 16.6666 9.27782 16.6666 9.37504C16.6666 9.52782 16.6146 9.64587 16.5104 9.72921C16.4062 9.81254 16.2778 9.83337 16.125 9.79171C15.8889 9.72226 15.6423 9.67018 15.3854 9.63546C15.1285 9.60073 14.8611 9.58337 14.5833 9.58337C14.1805 9.58337 13.7916 9.62157 13.4166 9.69796C13.0416 9.77435 12.6736 9.88893 12.3125 10.0417C12.118 10.1112 11.9618 10.1077 11.8437 10.0313C11.7257 9.9549 11.6666 9.81949 11.6666 9.62504ZM10.6666 14.7917C11.3611 14.4445 12.0416 14.1841 12.7083 14.0105C13.375 13.8368 14.0833 13.75 14.8333 13.75C15.3611 13.75 15.9062 13.7917 16.4687 13.875C17.0312 13.9584 17.5139 14.0695 17.9166 14.2084V5.27087C17.4444 5.03476 16.9444 4.86115 16.4166 4.75004C15.8889 4.63893 15.3611 4.58337 14.8333 4.58337C14.0833 4.58337 13.3576 4.69796 12.6562 4.92712C11.9548 5.15629 11.2916 5.47921 10.6666 5.89587V14.7917ZM10.0416 16.4375C9.93054 16.4375 9.82984 16.4271 9.73956 16.4063C9.64929 16.3855 9.56942 16.3473 9.49998 16.2917C8.8472 15.8889 8.15276 15.5764 7.41665 15.3542C6.68054 15.132 5.93054 15.0209 5.16665 15.0209C4.65276 15.0209 4.15276 15.0834 3.66665 15.2084C3.18054 15.3334 2.69442 15.4862 2.20831 15.6667C1.88887 15.8195 1.57984 15.7987 1.28123 15.6042C0.982619 15.4098 0.833313 15.132 0.833313 14.7709V5.12504C0.833313 4.91671 0.881924 4.72574 0.979146 4.55212C1.07637 4.37851 1.2222 4.2431 1.41665 4.14587C1.99998 3.8681 2.60762 3.66324 3.23956 3.53129C3.87151 3.39935 4.51387 3.33337 5.16665 3.33337C6.04165 3.33337 6.89234 3.45143 7.71873 3.68754C8.54512 3.92365 9.31942 4.28476 10.0416 4.77087C10.75 4.28476 11.5104 3.92365 12.3229 3.68754C13.1354 3.45143 13.9722 3.33337 14.8333 3.33337C15.4861 3.33337 16.125 3.39935 16.75 3.53129C17.375 3.66324 17.9791 3.8681 18.5625 4.14587C18.7569 4.2431 18.9062 4.37851 19.0104 4.55212C19.1146 4.72574 19.1666 4.91671 19.1666 5.12504V14.7709C19.1666 15.1598 19.0104 15.4549 18.6979 15.6563C18.3854 15.8577 18.0764 15.8612 17.7708 15.6667C17.2986 15.4723 16.8194 15.316 16.3333 15.198C15.8472 15.0799 15.3472 15.0209 14.8333 15.0209C14.0833 15.0209 13.3472 15.132 12.625 15.3542C11.9028 15.5764 11.2222 15.8889 10.5833 16.2917C10.5139 16.3473 10.434 16.3855 10.3437 16.4063C10.2535 16.4271 10.1528 16.4375 10.0416 16.4375V16.4375Z" fill="url(#paint0_linear_9_354)"/>
<defs>
<linearGradient id="paint0_linear_9_354" x1="9.99998" y1="3.33337" x2="9.99998" y2="16.4375" gradientUnits="userSpaceOnUse">
<stop stop-color="#272ED2"/>
<stop stop-color="#272ED2"/>
<stop offset="0.0001" stop-color="#131AB9"/>
<stop offset="1" stop-color="#00057D"/>
</linearGradient>
</defs>
</svg>
