<svg width="35" height="25" viewBox="0 0 35 25" fill="none" xmlns="http://www.w3.org/2000/svg">
<path d="M2.625 25C1.925 25 1.3125 24.7656 0.7875 24.2969C0.2625 23.8281 0 23.2813 0 22.6562V2.34375C0 1.71875 0.2625 1.17187 0.7875 0.703125C1.3125 0.234375 1.925 0 2.625 0H32.375C33.075 0 33.6875 0.234375 34.2125 0.703125C34.7375 1.17187 35 1.71875 35 2.34375V22.6562C35 23.2813 34.7375 23.8281 34.2125 24.2969C33.6875 24.7656 33.075 25 32.375 25H2.625ZM17.5 12.9688C17.6458 12.9688 17.7698 12.9492 17.8719 12.9102C17.974 12.8711 18.0833 12.8255 18.2 12.7734L31.9375 4.76563C32.0833 4.6875 32.1927 4.58333 32.2656 4.45312C32.3385 4.32292 32.375 4.17969 32.375 4.02344C32.375 3.6849 32.2073 3.41797 31.8719 3.22266C31.5365 3.02734 31.1938 3.03385 30.8438 3.24219L17.5 10.8594L4.2 3.24219C3.85 3.03385 3.5 3.02083 3.15 3.20313C2.8 3.38542 2.625 3.64583 2.625 3.98438C2.625 4.14063 2.66875 4.29036 2.75625 4.43359C2.84375 4.57682 2.94583 4.6875 3.0625 4.76563L16.8 12.7734C16.9167 12.8255 17.026 12.8711 17.1281 12.9102C17.2302 12.9492 17.3542 12.9688 17.5 12.9688Z" fill="url(#paint0_linear_11_400)"/>
<defs>
<linearGradient id="paint0_linear_11_400" x1="17.5" y1="0" x2="17.5" y2="25" gradientUnits="userSpaceOnUse">
<stop stop-color="#272ED2"/>
<stop stop-color="#272ED2"/>
<stop offset="0.0001" stop-color="#131AB9"/>
<stop offset="1" stop-color="#00057D"/>
</linearGradient>
</defs>
</svg>
