<svg width="20" height="20" viewBox="0 0 20 20" fill="none" xmlns="http://www.w3.org/2000/svg">
<path d="M11.0625 18.3333C10.743 18.3333 10.5104 18.2291 10.3646 18.0208C10.2187 17.8125 10.2014 17.5555 10.3125 17.25L13.375 9.12496C13.4583 8.90274 13.6111 8.71524 13.8333 8.56246C14.0555 8.40968 14.2847 8.33329 14.5208 8.33329C14.7569 8.33329 14.9896 8.40968 15.2187 8.56246C15.4479 8.71524 15.6041 8.90274 15.6875 9.12496L18.8125 17.1666C18.9375 17.4861 18.9236 17.7604 18.7708 17.9895C18.618 18.2187 18.3611 18.3333 18 18.3333C17.8472 18.3333 17.7014 18.2847 17.5625 18.1875C17.4236 18.0902 17.3264 17.9652 17.2708 17.8125L16.5833 15.7083H12.5833L11.7916 17.8333C11.7361 17.9722 11.6389 18.0902 11.5 18.1875C11.3611 18.2847 11.2153 18.3333 11.0625 18.3333V18.3333ZM13.0416 14.25H16L14.5416 10.2083H14.5L13.0416 14.25ZM6.02081 7.12496C6.22915 7.48607 6.45831 7.83676 6.70831 8.17704C6.95831 8.51732 7.22915 8.86801 7.52081 9.22913C8.14581 8.57635 8.66665 7.89926 9.08331 7.19788C9.49998 6.49649 9.85415 5.76385 10.1458 4.99996H1.66665C1.43054 4.99996 1.23262 4.9201 1.0729 4.76038C0.913174 4.60065 0.833313 4.40274 0.833313 4.16663C0.833313 3.93051 0.913174 3.7326 1.0729 3.57288C1.23262 3.41315 1.43054 3.33329 1.66665 3.33329H6.66665V2.49996C6.66665 2.26385 6.74651 2.06593 6.90623 1.90621C7.06595 1.74649 7.26387 1.66663 7.49998 1.66663C7.73609 1.66663 7.93401 1.74649 8.09373 1.90621C8.25345 2.06593 8.33331 2.26385 8.33331 2.49996V3.33329H13.3333C13.5694 3.33329 13.7673 3.41315 13.9271 3.57288C14.0868 3.7326 14.1666 3.93051 14.1666 4.16663C14.1666 4.40274 14.0868 4.60065 13.9271 4.76038C13.7673 4.9201 13.5694 4.99996 13.3333 4.99996H11.8125C11.5069 5.95829 11.1007 6.89926 10.5937 7.82288C10.0868 8.74649 9.46526 9.62496 8.72915 10.4583L10.7708 12.5208L10.1458 14.2083L7.49998 11.6666L3.89581 15.2708C3.74304 15.4236 3.55554 15.5 3.33331 15.5C3.11109 15.5 2.92359 15.4166 2.77081 15.25C2.60415 15.0972 2.52081 14.9097 2.52081 14.6875C2.52081 14.4652 2.60415 14.2708 2.77081 14.1041L6.43748 10.4375C6.07637 10.0069 5.73609 9.57288 5.41665 9.13538C5.0972 8.69788 4.80553 8.24996 4.54165 7.79163C4.37498 7.48607 4.36109 7.22218 4.49998 6.99996C4.63887 6.77774 4.88887 6.66663 5.24998 6.66663C5.40276 6.66663 5.55206 6.71177 5.6979 6.80204C5.84373 6.89232 5.95137 6.99996 6.02081 7.12496V7.12496Z" fill="url(#paint0_linear_9_343)"/>
<defs>
<linearGradient id="paint0_linear_9_343" x1="9.86508" y1="1.66663" x2="9.86508" y2="18.3333" gradientUnits="userSpaceOnUse">
<stop stop-color="#272ED2"/>
<stop stop-color="#272ED2"/>
<stop offset="0.0001" stop-color="#131AB9"/>
<stop offset="1" stop-color="#00057D"/>
</linearGradient>
</defs>
</svg>
