<svg width="360" height="52" viewBox="0 0 360 52" fill="none" xmlns="http://www.w3.org/2000/svg">
<path d="M138 39C138 36.2386 140.239 34 143 34H355C357.761 34 360 36.2386 360 39V47C360 49.7614 357.761 52 355 52H143C140.239 52 138 49.7614 138 47V39Z" fill="#4775EB" fill-opacity="0.75"/>
<path d="M0 5C0 2.23858 2.23858 0 5 0H169C171.761 0 174 2.23858 174 5V13C174 15.7614 171.761 18 169 18H5C2.23858 18 0 15.7614 0 13V5Z" fill="#272ED2" fill-opacity="0.75"/>
<path d="M33.696 6.496H46.32C48.528 6.496 50.544 6.848 52.368 7.552C54.192 8.256 55.744 9.312 57.024 10.72C58.304 12.096 59.296 13.84 60 15.952C60.704 18.032 61.056 20.464 61.056 23.248C61.056 26.032 60.704 28.48 60 30.592C59.296 32.672 58.304 34.416 57.024 35.824C55.744 37.2 54.192 38.24 52.368 38.944C50.544 39.648 48.528 40 46.32 40H33.696V6.496ZM46.32 33.52C48.496 33.52 50.208 32.912 51.456 31.696C52.704 30.48 53.328 28.528 53.328 25.84V20.656C53.328 17.968 52.704 16.016 51.456 14.8C50.208 13.584 48.496 12.976 46.32 12.976H40.992V33.52H46.32Z" fill="black"/>
<path d="M70.3327 12.112C68.8927 12.112 67.8367 11.792 67.1647 11.152C66.5247 10.48 66.2048 9.632 66.2048 8.608V7.552C66.2048 6.528 66.5247 5.696 67.1647 5.056C67.8367 4.384 68.8927 4.048 70.3327 4.048C71.7727 4.048 72.8128 4.384 73.4528 5.056C74.1248 5.696 74.4608 6.528 74.4608 7.552V8.608C74.4608 9.632 74.1248 10.48 73.4528 11.152C72.8128 11.792 71.7727 12.112 70.3327 12.112ZM66.7807 14.8H73.8848V40H66.7807V14.8Z" fill="black"/>
<path d="M91.0271 40.576C89.1071 40.576 87.3951 40.272 85.8911 39.664C84.3871 39.024 83.1071 38.144 82.0511 37.024C81.0271 35.872 80.2431 34.48 79.6991 32.848C79.1871 31.216 78.9311 29.392 78.9311 27.376C78.9311 25.392 79.1871 23.6 79.6991 22C80.2111 20.368 80.9631 18.976 81.9551 17.824C82.9791 16.672 84.2271 15.792 85.6991 15.184C87.1711 14.544 88.8511 14.224 90.7391 14.224C92.8191 14.224 94.5951 14.576 96.0671 15.28C97.5711 15.984 98.7871 16.928 99.7151 18.112C100.675 19.296 101.363 20.672 101.779 22.24C102.227 23.776 102.451 25.392 102.451 27.088V29.2H86.2751V29.584C86.2751 31.248 86.7231 32.576 87.6191 33.568C88.5151 34.528 89.9231 35.008 91.8431 35.008C93.3151 35.008 94.5151 34.72 95.4431 34.144C96.3711 33.536 97.2351 32.816 98.0351 31.984L101.587 36.4C100.467 37.712 98.9951 38.736 97.1711 39.472C95.3791 40.208 93.3311 40.576 91.0271 40.576ZM90.8831 19.456C89.4431 19.456 88.3071 19.936 87.4751 20.896C86.6751 21.824 86.2751 23.072 86.2751 24.64V25.024H95.1071V24.592C95.1071 23.056 94.7551 21.824 94.0511 20.896C93.3791 19.936 92.3231 19.456 90.8831 19.456Z" fill="black"/>
<path d="M130.796 41.824C130.796 43.168 130.556 44.352 130.076 45.376C129.628 46.4 128.876 47.264 127.82 47.968C126.764 48.704 125.356 49.248 123.596 49.6C121.868 49.984 119.724 50.176 117.164 50.176C114.988 50.176 113.132 50.032 111.596 49.744C110.092 49.488 108.86 49.104 107.9 48.592C106.972 48.112 106.284 47.504 105.836 46.768C105.42 46.064 105.212 45.248 105.212 44.32C105.212 42.912 105.628 41.808 106.46 41.008C107.292 40.208 108.444 39.712 109.916 39.52V38.992C108.7 38.768 107.788 38.256 107.18 37.456C106.572 36.624 106.268 35.664 106.268 34.576C106.268 33.904 106.396 33.328 106.652 32.848C106.94 32.336 107.292 31.904 107.708 31.552C108.156 31.168 108.668 30.864 109.244 30.64C109.82 30.416 110.396 30.24 110.972 30.112V29.92C109.436 29.216 108.3 28.256 107.564 27.04C106.828 25.792 106.46 24.352 106.46 22.72C106.46 20.16 107.34 18.112 109.1 16.576C110.892 15.008 113.612 14.224 117.26 14.224C118.924 14.224 120.348 14.384 121.532 14.704V13.744C121.532 12.4 121.852 11.44 122.492 10.864C123.164 10.256 124.108 9.952 125.324 9.952H129.308V15.232H123.74V15.52C125.212 16.224 126.3 17.2 127.004 18.448C127.708 19.664 128.06 21.088 128.06 22.72C128.06 25.248 127.164 27.28 125.372 28.816C123.612 30.32 120.908 31.072 117.26 31.072C115.628 31.072 114.14 30.896 112.796 30.544C112.06 31.024 111.692 31.696 111.692 32.56C111.692 33.168 111.916 33.648 112.364 34C112.844 34.32 113.628 34.48 114.716 34.48H122.012C125.084 34.48 127.308 35.12 128.684 36.4C130.092 37.68 130.796 39.488 130.796 41.824ZM124.124 42.784C124.124 42.048 123.836 41.488 123.26 41.104C122.684 40.72 121.676 40.528 120.236 40.528H111.596C111.276 40.848 111.036 41.2 110.876 41.584C110.748 42 110.684 42.4 110.684 42.784C110.684 43.712 111.084 44.384 111.884 44.8C112.684 45.248 114.044 45.472 115.964 45.472H118.844C120.764 45.472 122.124 45.248 122.924 44.8C123.724 44.384 124.124 43.712 124.124 42.784ZM117.26 26.416C118.668 26.416 119.708 26.128 120.38 25.552C121.084 24.944 121.436 24.08 121.436 22.96V22.384C121.436 21.264 121.084 20.416 120.38 19.84C119.708 19.232 118.668 18.928 117.26 18.928C115.852 18.928 114.796 19.232 114.092 19.84C113.42 20.416 113.084 21.264 113.084 22.384V22.96C113.084 24.08 113.42 24.944 114.092 25.552C114.796 26.128 115.852 26.416 117.26 26.416Z" fill="black"/>
<path d="M143.895 40.576C142.039 40.576 140.375 40.272 138.903 39.664C137.463 39.056 136.231 38.176 135.207 37.024C134.215 35.872 133.447 34.48 132.903 32.848C132.359 31.216 132.087 29.392 132.087 27.376C132.087 25.36 132.359 23.536 132.903 21.904C133.447 20.272 134.215 18.896 135.207 17.776C136.231 16.624 137.463 15.744 138.903 15.136C140.375 14.528 142.039 14.224 143.895 14.224C145.751 14.224 147.399 14.528 148.839 15.136C150.311 15.744 151.543 16.624 152.535 17.776C153.559 18.896 154.343 20.272 154.887 21.904C155.431 23.536 155.703 25.36 155.703 27.376C155.703 29.392 155.431 31.216 154.887 32.848C154.343 34.48 153.559 35.872 152.535 37.024C151.543 38.176 150.311 39.056 148.839 39.664C147.399 40.272 145.751 40.576 143.895 40.576ZM143.895 34.96C145.303 34.96 146.391 34.528 147.159 33.664C147.927 32.8 148.311 31.568 148.311 29.968V24.832C148.311 23.232 147.927 22 147.159 21.136C146.391 20.272 145.303 19.84 143.895 19.84C142.487 19.84 141.399 20.272 140.631 21.136C139.863 22 139.479 23.232 139.479 24.832V29.968C139.479 31.568 139.863 32.8 140.631 33.664C141.399 34.528 142.487 34.96 143.895 34.96Z" fill="black"/>
<path d="M172.493 6.496H188.765C191.549 6.496 193.709 7.28 195.245 8.848C196.813 10.416 197.597 12.496 197.597 15.088C197.597 16.368 197.421 17.456 197.069 18.352C196.749 19.248 196.301 19.984 195.725 20.56C195.181 21.136 194.525 21.568 193.757 21.856C193.021 22.112 192.221 22.256 191.357 22.288V22.576C192.157 22.576 192.989 22.72 193.853 23.008C194.749 23.296 195.565 23.76 196.301 24.4C197.037 25.008 197.645 25.808 198.125 26.8C198.637 27.792 198.893 29.008 198.893 30.448C198.893 31.76 198.669 33.008 198.221 34.192C197.805 35.344 197.213 36.352 196.445 37.216C195.677 38.08 194.765 38.768 193.709 39.28C192.653 39.76 191.501 40 190.253 40H172.493V6.496ZM179.789 33.856H188.189C189.149 33.856 189.901 33.6 190.445 33.088C191.021 32.544 191.309 31.792 191.309 30.832V29.2C191.309 28.24 191.021 27.504 190.445 26.992C189.901 26.448 189.149 26.176 188.189 26.176H179.789V33.856ZM179.789 20.224H187.037C187.997 20.224 188.749 19.952 189.293 19.408C189.837 18.864 190.109 18.112 190.109 17.152V15.712C190.109 14.752 189.837 14 189.293 13.456C188.749 12.912 187.997 12.64 187.037 12.64H179.789V20.224Z" fill="black"/>
<path d="M214.348 40.576C212.492 40.576 210.829 40.272 209.357 39.664C207.917 39.056 206.685 38.176 205.661 37.024C204.669 35.872 203.901 34.48 203.357 32.848C202.813 31.216 202.54 29.392 202.54 27.376C202.54 25.36 202.813 23.536 203.357 21.904C203.901 20.272 204.669 18.896 205.661 17.776C206.685 16.624 207.917 15.744 209.357 15.136C210.829 14.528 212.492 14.224 214.348 14.224C216.204 14.224 217.852 14.528 219.292 15.136C220.764 15.744 221.996 16.624 222.988 17.776C224.012 18.896 224.796 20.272 225.34 21.904C225.884 23.536 226.156 25.36 226.156 27.376C226.156 29.392 225.884 31.216 225.34 32.848C224.796 34.48 224.012 35.872 222.988 37.024C221.996 38.176 220.764 39.056 219.292 39.664C217.852 40.272 216.204 40.576 214.348 40.576ZM214.348 34.96C215.756 34.96 216.845 34.528 217.613 33.664C218.381 32.8 218.764 31.568 218.764 29.968V24.832C218.764 23.232 218.381 22 217.613 21.136C216.845 20.272 215.756 19.84 214.348 19.84C212.94 19.84 211.853 20.272 211.085 21.136C210.317 22 209.932 23.232 209.932 24.832V29.968C209.932 31.568 210.317 32.8 211.085 33.664C211.853 34.528 212.94 34.96 214.348 34.96Z" fill="black"/>
<path d="M231.218 40V14.8H238.322V19.072H238.61C239.058 17.728 239.826 16.592 240.914 15.664C242.002 14.704 243.49 14.224 245.378 14.224C247.106 14.224 248.578 14.656 249.794 15.52C251.01 16.384 251.89 17.648 252.434 19.312H252.578C252.802 18.608 253.138 17.952 253.586 17.344C254.066 16.704 254.642 16.16 255.314 15.712C255.986 15.264 256.738 14.912 257.57 14.656C258.402 14.368 259.298 14.224 260.258 14.224C262.69 14.224 264.546 15.088 265.826 16.816C267.138 18.544 267.794 21.008 267.794 24.208V40H260.69V24.784C260.69 21.584 259.538 19.984 257.234 19.984C256.178 19.984 255.218 20.288 254.354 20.896C253.49 21.504 253.058 22.432 253.058 23.68V40H245.954V24.784C245.954 21.584 244.802 19.984 242.498 19.984C241.986 19.984 241.474 20.064 240.962 20.224C240.482 20.352 240.034 20.576 239.618 20.896C239.234 21.216 238.914 21.616 238.658 22.096C238.434 22.544 238.322 23.072 238.322 23.68V40H231.218Z" fill="black"/>
<path d="M275.357 20.32H271.805V14.8H275.357V11.824C275.357 9.392 275.997 7.568 277.277 6.352C278.557 5.104 280.429 4.48 282.893 4.48H287.501V10H282.461V14.8H298.541V40H291.437V20.32H282.461V40H275.357V20.32ZM294.989 12.112C293.549 12.112 292.493 11.792 291.821 11.152C291.181 10.48 290.861 9.632 290.861 8.608V7.552C290.861 6.528 291.181 5.696 291.821 5.056C292.493 4.384 293.549 4.048 294.989 4.048C296.429 4.048 297.469 4.384 298.109 5.056C298.781 5.696 299.117 6.528 299.117 7.552V8.608C299.117 9.632 298.781 10.48 298.109 11.152C297.469 11.792 296.429 12.112 294.989 12.112Z" fill="black"/>
<path d="M305.187 40V14.8H312.291V19.072H312.579C313.027 17.728 313.795 16.592 314.883 15.664C315.971 14.704 317.459 14.224 319.347 14.224C321.075 14.224 322.547 14.656 323.763 15.52C324.979 16.384 325.859 17.648 326.403 19.312H326.547C326.771 18.608 327.107 17.952 327.555 17.344C328.035 16.704 328.611 16.16 329.283 15.712C329.955 15.264 330.707 14.912 331.539 14.656C332.371 14.368 333.267 14.224 334.227 14.224C336.659 14.224 338.515 15.088 339.795 16.816C341.107 18.544 341.763 21.008 341.763 24.208V40H334.659V24.784C334.659 21.584 333.507 19.984 331.203 19.984C330.147 19.984 329.187 20.288 328.323 20.896C327.459 21.504 327.027 22.432 327.027 23.68V40H319.923V24.784C319.923 21.584 318.771 19.984 316.467 19.984C315.955 19.984 315.443 20.064 314.931 20.224C314.451 20.352 314.003 20.576 313.587 20.896C313.203 21.216 312.883 21.616 312.627 22.096C312.403 22.544 312.291 23.072 312.291 23.68V40H305.187Z" fill="black"/>
</svg>
